RobotoFlex-YTLC570.ufo
<glyph name="parenright" format="2">
  <advance width="700"/>
  <unicode hex="0029"/>
  <outline>
    <contour>
      <point x="36" y="-436" type="qcurve"/>
      <point x="36" y="-256" type="line"/>
      <point x="160" y="-180"/>
      <point x="381" y="193"/>
      <point x="381" y="508" type="qcurve" smooth="yes"/>
      <point x="381" y="532" type="line" smooth="yes"/>
      <point x="381.0" y="861.0"/>
      <point x="160" y="1220"/>
      <point x="36" y="1296" type="qcurve"/>
      <point x="36" y="1476" type="line"/>
      <point x="240" y="1380"/>
      <point x="576" y="917"/>
      <point x="576" y="525" type="qcurve" smooth="yes"/>
      <point x="576" y="515" type="line" smooth="yes"/>
      <point x="576" y="140"/>
      <point x="240" y="-340"/>
    </contour>
  </outline>
</glyph>
<glyph name="H" format="2">
  <advance width="1458"/>
  <unicode hex="0048"/>
  <outline>
    <contour>
      <point x="170" y="0" type="line"/>
      <point x="170" y="1456" type="line"/>
      <point x="362" y="1456" type="line"/>
      <point x="362" y="830" type="line"/>
      <point x="1096" y="830" type="line"/>
      <point x="1096" y="1456" type="line"/>
      <point x="1288" y="1456" type="line"/>
      <point x="1288" y="0" type="line"/>
      <point x="1096" y="0" type="line"/>
      <point x="1096" y="672" type="line"/>
      <point x="362" y="672" type="line"/>
      <point x="362" y="0" type="line"/>
    </contour>
  </outline>
</glyph>
<glyph name="J" format="2">
  <advance width="1100"/>
  <unicode hex="004A"/>
  <outline>
    <contour>
      <point x="25" y="400" type="qcurve" smooth="yes"/>
      <point x="25" y="410" type="line"/>
      <point x="217" y="410" type="line"/>
      <point x="217" y="400" type="line" smooth="yes"/>
      <point x="217" y="270"/>
      <point x="360" y="134"/>
      <point x="485" y="134" type="qcurve" smooth="yes"/>
      <point x="610" y="134"/>
      <point x="753" y="285"/>
      <point x="753" y="425" type="qcurve" smooth="yes"/>
      <point x="753" y="1456" type="line"/>
      <point x="945" y="1456" type="line"/>
      <point x="945" y="425" type="line" smooth="yes"/>
      <point x="945" y="215"/>
      <point x="690" y="-30"/>
      <point x="485" y="-30" type="qcurve" smooth="yes"/>
      <point x="280" y="-30"/>
      <point x="25" y="200"/>
    </contour>
  </outline>
</glyph>
<glyph name="R" format="2">
  <advance width="1250"/>
  <unicode hex="0052"/>
  <outline>
    <contour>
      <point x="170" y="0" type="line"/>
      <point x="170" y="1456" type="line"/>
      <point x="644" y="1456" type="line" smooth="yes"/>
      <point x="878" y="1456"/>
      <point x="1132" y="1222"/>
      <point x="1132" y="1028" type="qcurve" smooth="yes"/>
      <point x="1132" y="834"/>
      <point x="878" y="594"/>
      <point x="644" y="594" type="qcurve" smooth="yes"/>
      <point x="362" y="594" type="line"/>
      <point x="362" y="0" type="line"/>
    </contour>
    <contour>
      <point x="362" y="750" type="line"/>
      <point x="644" y="750" type="line" smooth="yes"/>
      <point x="810" y="750"/>
      <point x="940" y="912"/>
      <point x="940" y="1028" type="qcurve" smooth="yes"/>
      <point x="940" y="1144"/>
      <point x="810" y="1300"/>
      <point x="644" y="1300" type="qcurve" smooth="yes"/>
      <point x="362" y="1300" type="line"/>
    </contour>
    <contour>
      <point x="996" y="0" type="line"/>
      <point x="640" y="672" type="line"/>
      <point x="846" y="672" type="line"/>
      <point x="1210" y="0" type="line"/>
    </contour>
  </outline>
</glyph>
<glyph name="b" format="2">
  <advance width="1170"/>
  <unicode hex="0062"/>
  <outline>
    <contour>
      <point x="148" y="0" type="line"/>
      <point x="148" y="1536" type="line"/>
      <point x="334" y="1536" type="line"/>
      <point x="334" y="1044" type="line"/>
      <point x="380" y="1109"/>
      <point x="535" y="1188"/>
      <point x="645" y="1188" type="qcurve" smooth="yes"/>
      <point x="845.0" y="1188.0"/>
      <point x="1085" y="855"/>
      <point x="1085" y="600" type="qcurve" smooth="yes"/>
      <point x="1085" y="568" type="line" smooth="yes"/>
      <point x="1085" y="313"/>
      <point x="845.0" y="-20.0"/>
      <point x="645" y="-20" type="qcurve" smooth="yes"/>
      <point x="535" y="-20"/>
      <point x="370" y="72"/>
      <point x="330" y="137" type="qcurve"/>
      <point x="324" y="137" type="line"/>
      <point x="316" y="0" type="line"/>
    </contour>
    <contour>
      <point x="334" y="312" type="line"/>
      <point x="365" y="242"/>
      <point x="505" y="132"/>
      <point x="605" y="132" type="qcurve" smooth="yes"/>
      <point x="755.0" y="132.0"/>
      <point x="895" y="383"/>
      <point x="895" y="568" type="qcurve" smooth="yes"/>
      <point x="895" y="600" type="line" smooth="yes"/>
      <point x="895" y="784"/>
      <point x="755.0" y="1036.0"/>
      <point x="605" y="1036" type="qcurve" smooth="yes"/>
      <point x="505" y="1036"/>
      <point x="365" y="926"/>
      <point x="334" y="856" type="qcurve"/>
    </contour>
  </outline>
</glyph>
<glyph name="d" format="2">
  <advance width="1170"/>
  <unicode hex="0064"/>
  <outline>
    <contour>
      <point x="85" y="568" type="qcurve" smooth="yes"/>
      <point x="85" y="600" type="line" smooth="yes"/>
      <point x="85" y="855"/>
      <point x="325.0" y="1188.0"/>
      <point x="525" y="1188" type="qcurve" smooth="yes"/>
      <point x="635" y="1188"/>
      <point x="790" y="1109"/>
      <point x="836" y="1044" type="qcurve"/>
      <point x="836" y="1536" type="line"/>
      <point x="1022" y="1536" type="line"/>
      <point x="1022" y="0" type="line"/>
      <point x="854" y="0" type="line"/>
      <point x="846" y="137" type="line"/>
      <point x="840" y="137" type="line"/>
      <point x="800" y="72"/>
      <point x="635" y="-20"/>
      <point x="525" y="-20" type="qcurve" smooth="yes"/>
      <point x="325.0" y="-20.0"/>
      <point x="85" y="313"/>
    </contour>
    <contour>
      <point x="275" y="568" type="line" smooth="yes"/>
      <point x="275" y="383"/>
      <point x="415.0" y="132.0"/>
      <point x="565" y="132" type="qcurve" smooth="yes"/>
      <point x="665" y="132"/>
      <point x="805" y="242"/>
      <point x="836" y="312" type="qcurve"/>
      <point x="836" y="856" type="line"/>
      <point x="805" y="926"/>
      <point x="665" y="1036"/>
      <point x="565" y="1036" type="qcurve" smooth="yes"/>
      <point x="415.0" y="1036.0"/>
      <point x="275" y="784"/>
      <point x="275" y="600" type="qcurve" smooth="yes"/>
    </contour>
  </outline>
</glyph>
<glyph name="m" format="2">
  <advance width="1764"/>
  <unicode hex="006D"/>
  <outline>
    <contour>
      <point x="148" y="0" type="line"/>
      <point x="148" y="1168" type="line"/>
      <point x="316" y="1168" type="line"/>
      <point x="324" y="1033" type="line"/>
      <point x="330" y="1033" type="line"/>
      <point x="386" y="1104"/>
      <point x="545" y="1188"/>
      <point x="642" y="1188" type="qcurve" smooth="yes"/>
      <point x="748" y="1188"/>
      <point x="902" y="1104"/>
      <point x="942" y="1010" type="qcurve"/>
      <point x="948" y="1010" type="line"/>
      <point x="1014" y="1104"/>
      <point x="1174" y="1188"/>
      <point x="1278" y="1188" type="qcurve" smooth="yes"/>
      <point x="1442" y="1188"/>
      <point x="1626" y="1007"/>
      <point x="1626" y="795" type="qcurve" smooth="yes"/>
      <point x="1626" y="0" type="line"/>
      <point x="1440" y="0" type="line"/>
      <point x="1440" y="797" type="line" smooth="yes"/>
      <point x="1440" y="923"/>
      <point x="1332" y="1032"/>
      <point x="1233" y="1032" type="qcurve" smooth="yes"/>
      <point x="1147" y="1032"/>
      <point x="1018" y="936"/>
      <point x="980" y="860" type="qcurve"/>
      <point x="980" y="0" type="line"/>
      <point x="794" y="0" type="line"/>
      <point x="794" y="797" type="line" smooth="yes"/>
      <point x="794" y="923"/>
      <point x="686" y="1032"/>
      <point x="587" y="1032" type="qcurve" smooth="yes"/>
      <point x="501" y="1032"/>
      <point x="372" y="936"/>
      <point x="334" y="860" type="qcurve"/>
      <point x="334" y="0" type="line"/>
    </contour>
  </outline>
</glyph>
<glyph name="r" format="2">
  <advance width="700"/>
  <unicode hex="0072"/>
  <outline>
    <contour>
      <point x="148" y="0" type="line"/>
      <point x="148" y="1168" type="line"/>
      <point x="316" y="1168" type="line"/>
      <point x="324" y="1033" type="line"/>
      <point x="330" y="1033" type="line"/>
      <point x="370" y="1099"/>
      <point x="500" y="1198"/>
      <point x="590" y="1198" type="qcurve" smooth="yes"/>
      <point x="612" y="1198"/>
      <point x="660" y="1188"/>
      <point x="670" y="1184" type="qcurve"/>
      <point x="670" y="1012" type="line"/>
      <point x="650" y="1016"/>
      <point x="606" y="1020"/>
      <point x="580" y="1020" type="qcurve" smooth="yes"/>
      <point x="490" y="1020"/>
      <point x="364" y="926"/>
      <point x="334" y="856" type="qcurve"/>
      <point x="334" y="0" type="line"/>
    </contour>
  </outline>
</glyph>
<glyph name="t" format="2">
  <advance width="650"/>
  <unicode hex="0074"/>
  <outline>
    <contour>
      <point x="0" y="1026" type="line"/>
      <point x="0" y="1168" type="line"/>
      <point x="600" y="1168" type="line"/>
      <point x="600" y="1026" type="line"/>
    </contour>
    <contour>
      <point x="188" y="260" type="qcurve" smooth="yes"/>
      <point x="188" y="1082" type="line"/>
      <point x="188" y="1112" type="line"/>
      <point x="188" y="1352" type="line"/>
      <point x="374" y="1352" type="line"/>
      <point x="374" y="260" type="line" smooth="yes"/>
      <point x="374" y="190"/>
      <point x="430" y="130"/>
      <point x="490" y="130" type="qcurve" smooth="yes"/>
      <point x="518" y="130"/>
      <point x="572" y="142"/>
      <point x="600" y="152" type="qcurve"/>
      <point x="600" y="0" type="line"/>
      <point x="574" y="-12"/>
      <point x="490" y="-30"/>
      <point x="440" y="-30" type="qcurve" smooth="yes"/>
      <point x="325" y="-30"/>
      <point x="188" y="110"/>
    </contour>
  </outline>
</glyph>
<glyph name="asciitilde" format="2">
  <advance width="1024"/>
  <unicode hex="007E"/>
  <outline>
    <contour>
      <point x="45" y="532" type="qcurve"/>
      <point x="45" y="734" type="line"/>
      <point x="92" y="785"/>
      <point x="224" y="842"/>
      <point x="289" y="843" type="qcurve" smooth="yes"/>
      <point x="368" y="844"/>
      <point x="460" y="801"/>
      <point x="523" y="770" type="qcurve" smooth="yes"/>
      <point x="582" y="740"/>
      <point x="667" y="701.0"/>
      <point x="741" y="701" type="qcurve" smooth="yes"/>
      <point x="806" y="701.0"/>
      <point x="931" y="769"/>
      <point x="978" y="829" type="qcurve"/>
      <point x="978" y="626" type="line"/>
      <point x="931" y="575"/>
      <point x="807" y="517.0"/>
      <point x="742" y="517" type="qcurve" smooth="yes"/>
      <point x="668" y="517.0"/>
      <point x="583" y="556"/>
      <point x="524" y="586" type="qcurve" smooth="yes"/>
      <point x="461" y="617"/>
      <point x="368" y="659.0"/>
      <point x="289" y="659" type="qcurve" smooth="yes"/>
      <point x="224" y="659.0"/>
      <point x="92" y="592"/>
    </contour>
  </outline>
</glyph>
<glyph name="sterling" format="2">
  <advance width="1024"/>
  <unicode hex="00A3"/>
  <outline>
    <contour>
      <point x="1028" y="0" type="line"/>
      <point x="36" y="0" type="line"/>
      <point x="36" y="160" type="line"/>
      <point x="92" y="160" type="line" smooth="yes"/>
      <point x="184.0" y="160.0"/>
      <point x="264" y="324"/>
      <point x="250" y="467" type="qcurve" smooth="yes"/>
      <point x="195" y="1039" type="line" smooth="yes"/>
      <point x="177" y="1228"/>
      <point x="380" y="1476"/>
      <point x="581" y="1476" type="qcurve" smooth="yes"/>
      <point x="771" y="1476"/>
      <point x="984" y="1270"/>
      <point x="984" y="1103" type="qcurve" smooth="yes"/>
      <point x="984" y="1087" type="line"/>
      <point x="792" y="1087" type="line"/>
      <point x="792" y="1103" type="line" smooth="yes"/>
      <point x="792.0" y="1218"/>
      <point x="675" y="1309"/>
      <point x="583" y="1309.0" type="qcurve" smooth="yes"/>
      <point x="486.0" y="1309.0"/>
      <point x="369" y="1185"/>
      <point x="383" y="1039" type="qcurve" smooth="yes"/>
      <point x="434" y="508" type="line" smooth="yes"/>
      <point x="447" y="372"/>
      <point x="392" y="207"/>
      <point x="322" y="166" type="qcurve"/>
      <point x="1028" y="166" type="line"/>
    </contour>
    <contour>
      <point x="824" y="625" type="line"/>
      <point x="52" y="625" type="line"/>
      <point x="52" y="780" type="line"/>
      <point x="824" y="780" type="line"/>
    </contour>
  </outline>
</glyph>
<glyph name="registered" format="2">
  <advance width="1654"/>
  <unicode hex="00AE"/>
  <outline>
    <contour>
      <point x="38" y="687" type="qcurve" smooth="yes"/>
      <point x="38" y="1039"/>
      <point x="501" y="1519"/>
      <point x="827" y="1519" type="qcurve" smooth="yes"/>
      <point x="1152" y="1519"/>
      <point x="1616" y="1039"/>
      <point x="1616" y="687" type="qcurve" smooth="yes"/>
      <point x="1616" y="337"/>
      <point x="1152" y="-147"/>
      <point x="827" y="-147" type="qcurve" smooth="yes"/>
      <point x="501" y="-147"/>
      <point x="38" y="337"/>
    </contour>
    <contour>
      <point x="186" y="687" type="qcurve" smooth="yes"/>
      <point x="186" y="400"/>
      <point x="563" y="4"/>
      <point x="828" y="4" type="qcurve" smooth="yes"/>
      <point x="1092" y="4"/>
      <point x="1469" y="400"/>
      <point x="1469" y="687" type="qcurve" smooth="yes"/>
      <point x="1469" y="975"/>
      <point x="1092" y="1367"/>
      <point x="828" y="1367" type="qcurve" smooth="yes"/>
      <point x="563" y="1367"/>
      <point x="186" y="975"/>
    </contour>
    <contour>
      <point x="855" y="597" type="line"/>
      <point x="664" y="597" type="line"/>
      <point x="664" y="225" type="line"/>
      <point x="499" y="225" type="line"/>
      <point x="499" y="1158" type="line"/>
      <point x="821" y="1158" type="line" smooth="yes"/>
      <point x="993" y="1158"/>
      <point x="1197" y="1018"/>
      <point x="1197" y="877" type="qcurve" smooth="yes"/>
      <point x="1197" y="764"/>
      <point x="1088" y="640"/>
      <point x="979" y="618" type="qcurve"/>
      <point x="1010" y="595"/>
      <point x="1035" y="559"/>
      <point x="1052" y="530" type="qcurve" smooth="yes"/>
      <point x="1221" y="243" type="line"/>
      <point x="1221" y="225" type="line"/>
      <point x="1042" y="225" type="line"/>
    </contour>
    <contour>
      <point x="822" y="1007" type="qcurve" smooth="yes"/>
      <point x="664" y="1007" type="line"/>
      <point x="664" y="738" type="line"/>
      <point x="847" y="738" type="line" smooth="yes"/>
      <point x="920" y="738.0"/>
      <point x="1016" y="795"/>
      <point x="1016" y="859" type="qcurve" smooth="yes"/>
      <point x="1016.0" y="940.0"/>
      <point x="940" y="1006"/>
    </contour>
  </outline>
</glyph>
<glyph name="cedilla" format="2">
  <advance width="1024"/>
  <unicode hex="00B8"/>
  <outline>
    <contour>
      <point x="440" y="42" type="line"/>
      <point x="569" y="42" type="line"/>
      <point x="541" y="-53" type="line"/>
      <point x="598" y="-63"/>
      <point x="724.0" y="-139"/>
      <point x="724" y="-226" type="qcurve" smooth="yes"/>
      <point x="724.0" y="-319"/>
      <point x="550" y="-435.0"/>
      <point x="348" y="-435" type="qcurve"/>
      <point x="341" y="-328" type="line"/>
      <point x="463" y="-328.0"/>
      <point x="542.0" y="-281"/>
      <point x="542" y="-228" type="qcurve" smooth="yes"/>
      <point x="542.0" y="-179"/>
      <point x="483" y="-142"/>
      <point x="399" y="-135" type="qcurve"/>
    </contour>
  </outline>
</glyph>
<glyph name="Thorn" format="2">
  <advance width="1170"/>
  <unicode hex="00DE"/>
  <guideline x="0.0" y="901.0" angle="0.0" identifier="i9jYwjBDP4"/>
  <guideline x="0.0" y="555.0" angle="0.0" identifier="T8KKW8oxop"/>
  <outline>
    <contour>
      <point x="170" y="1456" type="line"/>
      <point x="355" y="1456" type="line"/>
      <point x="355" y="1163" type="line"/>
      <point x="633" y="1163" type="line" smooth="yes"/>
      <point x="868" y="1163"/>
      <point x="1120" y="935"/>
      <point x="1120" y="738" type="qcurve" smooth="yes"/>
      <point x="1120" y="541"/>
      <point x="868" y="314"/>
      <point x="633" y="314" type="qcurve" smooth="yes"/>
      <point x="355" y="314" type="line"/>
      <point x="355" y="0" type="line"/>
      <point x="170" y="0" type="line"/>
    </contour>
    <contour>
      <point x="633" y="1012" type="qcurve" smooth="yes"/>
      <point x="355" y="1012" type="line"/>
      <point x="355" y="465" type="line"/>
      <point x="633" y="465" type="line" smooth="yes"/>
      <point x="793" y="465"/>
      <point x="935" y="604"/>
      <point x="935" y="736" type="qcurve" smooth="yes"/>
      <point x="935" y="868"/>
      <point x="793" y="1012"/>
    </contour>
  </outline>
</glyph>
<glyph name="oe" format="2">
  <advance width="1889"/>
  <unicode hex="0153"/>
  <outline>
    <contour>
      <point x="275" y="600" type="qcurve" smooth="yes"/>
      <point x="275" y="568" type="line" smooth="yes"/>
      <point x="275" y="381"/>
      <point x="429" y="122"/>
      <point x="581" y="122" type="qcurve" smooth="yes"/>
      <point x="733" y="122"/>
      <point x="887" y="381"/>
      <point x="887" y="568" type="qcurve" smooth="yes"/>
      <point x="887" y="600" type="line" smooth="yes"/>
      <point x="887" y="788"/>
      <point x="733" y="1046"/>
      <point x="581" y="1046" type="qcurve" smooth="yes"/>
      <point x="429" y="1046"/>
      <point x="275" y="788"/>
    </contour>
    <contour>
      <point x="981" y="942" type="qcurve"/>
      <point x="1029" y="1068"/>
      <point x="1239" y="1198"/>
      <point x="1364" y="1198" type="qcurve" smooth="yes"/>
      <point x="1579" y="1198"/>
      <point x="1811" y="884"/>
      <point x="1811" y="618" type="qcurve" smooth="yes"/>
      <point x="1811" y="542" type="line"/>
      <point x="1000" y="542" type="line"/>
      <point x="1000" y="690" type="line"/>
      <point x="1621" y="690" type="line"/>
      <point x="1621" y="696" type="line"/>
      <point x="1621" y="846"/>
      <point x="1504" y="1046"/>
      <point x="1364" y="1046" type="qcurve" smooth="yes"/>
      <point x="1224" y="1046"/>
      <point x="1078" y="788"/>
      <point x="1078" y="600" type="qcurve" smooth="yes"/>
      <point x="1078" y="568" type="line" smooth="yes"/>
      <point x="1078" y="381"/>
      <point x="1232" y="122"/>
      <point x="1394" y="122" type="qcurve" smooth="yes"/>
      <point x="1494" y="122"/>
      <point x="1638" y="210"/>
      <point x="1683" y="270" type="qcurve"/>
      <point x="1803" y="175" type="line"/>
      <point x="1753" y="100"/>
      <point x="1544" y="-30"/>
      <point x="1394" y="-30" type="qcurve" smooth="yes"/>
      <point x="1252" y="-30"/>
      <point x="1028" y="100"/>
      <point x="980" y="236" type="qcurve"/>
      <point x="940" y="108"/>
      <point x="712" y="-30"/>
      <point x="581" y="-30" type="qcurve" smooth="yes"/>
      <point x="355" y="-30"/>
      <point x="85" y="304"/>
      <point x="85" y="568" type="qcurve" smooth="yes"/>
      <point x="85" y="600" type="line" smooth="yes"/>
      <point x="85" y="863"/>
      <point x="355" y="1198"/>
      <point x="581" y="1198" type="qcurve" smooth="yes"/>
      <point x="712" y="1198"/>
      <point x="933" y="1060"/>
    </contour>
  </outline>
</glyph>
<glyph name="florin" format="2">
  <advance width="1024"/>
  <unicode hex="0192"/>
  <outline>
    <contour>
      <point x="868" y="882" type="line"/>
      <point x="868" y="740" type="line"/>
      <point x="555" y="740" type="line"/>
      <point x="555" y="111" type="line" smooth="yes"/>
      <point x="555.0" y="-173"/>
      <point x="349" y="-437.0"/>
      <point x="103" y="-437" type="qcurve" smooth="yes"/>
      <point x="72" y="-437"/>
      <point x="19" y="-430"/>
      <point x="-9" y="-420" type="qcurve"/>
      <point x="5" y="-271" type="line"/>
      <point x="20" y="-277"/>
      <point x="89" y="-284"/>
      <point x="103" y="-284" type="qcurve" smooth="yes"/>
      <point x="224.0" y="-284.0"/>
      <point x="370" y="-122"/>
      <point x="370" y="111" type="qcurve" smooth="yes"/>
      <point x="370" y="740" type="line"/>
      <point x="129" y="740" type="line"/>
      <point x="129" y="882" type="line"/>
      <point x="370" y="882" type="line"/>
      <point x="370" y="1126" type="line" smooth="yes"/>
      <point x="370.0" y="1301.0"/>
      <point x="551" y="1487"/>
      <point x="708" y="1487" type="qcurve" smooth="yes"/>
      <point x="794" y="1487.0"/>
      <point x="923" y="1434"/>
      <point x="963" y="1404" type="qcurve"/>
      <point x="882" y="1259" type="line"/>
      <point x="843" y="1290"/>
      <point x="759" y="1320.0"/>
      <point x="712" y="1320.0" type="qcurve" smooth="yes"/>
      <point x="642" y="1320"/>
      <point x="555" y="1224"/>
      <point x="555" y="1126" type="qcurve" smooth="yes"/>
      <point x="555" y="882" type="line"/>
    </contour>
  </outline>
</glyph>
<glyph name="schwa" format="2">
  <advance width="1060"/>
  <unicode hex="0259"/>
  <outline>
    <contour>
      <point x="975" y="600" type="qcurve" smooth="yes"/>
      <point x="975" y="568" type="line" smooth="yes"/>
      <point x="975" y="305"/>
      <point x="714" y="-30"/>
      <point x="499" y="-30" type="qcurve" smooth="yes"/>
      <point x="284" y="-30"/>
      <point x="52" y="284"/>
      <point x="52" y="550" type="qcurve" smooth="yes"/>
      <point x="52" y="626" type="line"/>
      <point x="861" y="626" type="line"/>
      <point x="861" y="478" type="line"/>
      <point x="242" y="478" type="line"/>
      <point x="242" y="472" type="line"/>
      <point x="242" y="322"/>
      <point x="359" y="122"/>
      <point x="499" y="122" type="qcurve" smooth="yes"/>
      <point x="639" y="122"/>
      <point x="785" y="380"/>
      <point x="785" y="568" type="qcurve" smooth="yes"/>
      <point x="785" y="600" type="line" smooth="yes"/>
      <point x="785" y="787"/>
      <point x="631" y="1046"/>
      <point x="469" y="1046" type="qcurve" smooth="yes"/>
      <point x="369" y="1046"/>
      <point x="225" y="958"/>
      <point x="180" y="898" type="qcurve"/>
      <point x="60" y="993" type="line"/>
      <point x="110" y="1068"/>
      <point x="319" y="1198"/>
      <point x="469" y="1198" type="qcurve" smooth="yes"/>
      <point x="714" y="1198"/>
      <point x="975" y="864"/>
    </contour>
  </outline>
</glyph>
<glyph name="beta" format="2">
  <advance width="1190"/>
  <unicode hex="03B2"/>
  <outline>
    <contour>
      <point x="148" y="-416" type="line"/>
      <point x="148" y="1058" type="line" smooth="yes"/>
      <point x="148" y="1311"/>
      <point x="397" y="1556"/>
      <point x="595" y="1556" type="qcurve" smooth="yes"/>
      <point x="790" y="1556"/>
      <point x="1017" y="1353"/>
      <point x="1017" y="1187" type="qcurve" smooth="yes"/>
      <point x="1017.0" y="1048.0"/>
      <point x="876.0" y="879.0"/>
      <point x="760" y="844" type="qcurve"/>
      <point x="760" y="870" type="line"/>
      <point x="919" y="852"/>
      <point x="1105.0" y="652.0"/>
      <point x="1105" y="483" type="qcurve"/>
      <point x="1105" y="243"/>
      <point x="835" y="-21"/>
      <point x="646" y="-21" type="qcurve" smooth="yes"/>
      <point x="537" y="-21"/>
      <point x="380" y="58"/>
      <point x="334" y="124" type="qcurve"/>
      <point x="334" y="-416" type="line"/>
    </contour>
    <contour>
      <point x="625" y="132" type="qcurve" smooth="yes"/>
      <point x="766" y="132"/>
      <point x="916" y="304"/>
      <point x="916" y="452" type="qcurve"/>
      <point x="916.0" y="632.0"/>
      <point x="728" y="765.0"/>
      <point x="570" y="765" type="qcurve" smooth="yes"/>
      <point x="478" y="765" type="line"/>
      <point x="478" y="927" type="line"/>
      <point x="571" y="927" type="line" smooth="yes"/>
      <point x="702.0" y="927.0"/>
      <point x="834.0" y="1059"/>
      <point x="834" y="1186" type="qcurve" smooth="yes"/>
      <point x="834" y="1282"/>
      <point x="714" y="1404"/>
      <point x="595" y="1404" type="qcurve" smooth="yes"/>
      <point x="462" y="1404"/>
      <point x="334" y="1236"/>
      <point x="334" y="1065" type="qcurve" smooth="yes"/>
      <point x="334" y="311" type="line"/>
      <point x="375" y="227"/>
      <point x="517" y="132"/>
    </contour>
  </outline>
</glyph>
<glyph name="delta" format="2">
  <advance width="1142"/>
  <unicode hex="03B4"/>
  <outline>
    <contour>
      <point x="566" y="-30.0" type="qcurve" smooth="yes"/>
      <point x="333" y="-30.0"/>
      <point x="85.0" y="248.0"/>
      <point x="85.0" y="480.0" type="qcurve"/>
      <point x="85.0" y="490.0" type="line"/>
      <point x="85.0" y="702.0"/>
      <point x="321" y="987.0"/>
      <point x="541" y="1022.0" type="qcurve"/>
      <point x="686" y="947.0" type="line"/>
      <point x="459" y="926"/>
      <point x="272" y="686"/>
      <point x="272" y="493.0" type="qcurve"/>
      <point x="272" y="483.0" type="line"/>
      <point x="272.0" y="301.0"/>
      <point x="430" y="118"/>
      <point x="573" y="118.0" type="qcurve" smooth="yes"/>
      <point x="708.0" y="118.0"/>
      <point x="870.0" y="299.0"/>
      <point x="870" y="485.0" type="qcurve"/>
      <point x="870" y="504.0" type="line"/>
      <point x="870.0" y="647"/>
      <point x="741" y="861"/>
      <point x="551" y="945.0" type="qcurve" smooth="yes"/>
      <point x="415" y="1005"/>
      <point x="275" y="1152.0"/>
      <point x="276" y="1266.0" type="qcurve"/>
      <point x="275" y="1395.0"/>
      <point x="483" y="1556.0"/>
      <point x="650" y="1556.0" type="qcurve"/>
      <point x="759" y="1556.0"/>
      <point x="909" y="1516.0"/>
      <point x="966" y="1487.0" type="qcurve"/>
      <point x="935" y="1318.0" type="line"/>
      <point x="855" y="1354.0"/>
      <point x="713" y="1392.0"/>
      <point x="641" y="1392.0" type="qcurve"/>
      <point x="554" y="1392.0"/>
      <point x="463.0" y="1325.0"/>
      <point x="463" y="1268.0" type="qcurve"/>
      <point x="463.0" y="1218.0"/>
      <point x="536" y="1142.0"/>
      <point x="676" y="1063.0" type="qcurve" smooth="yes"/>
      <point x="867" y="955"/>
      <point x="1057" y="704.0"/>
      <point x="1057" y="512.0" type="qcurve"/>
      <point x="1057" y="493.0" type="line"/>
      <point x="1057" y="255.0"/>
      <point x="788" y="-30.0"/>
    </contour>
  </outline>
</glyph>
<glyph name="kappa" format="2">
  <advance width="1059"/>
  <unicode hex="03BA"/>
  <outline>
    <contour>
      <point x="148" y="0" type="line"/>
      <point x="148" y="1168" type="line"/>
      <point x="334" y="1168" type="line"/>
      <point x="334" y="0" type="line"/>
    </contour>
    <contour>
      <point x="205" y="525" type="line"/>
      <point x="205" y="670" type="line"/>
      <point x="384" y="670" type="line"/>
      <point x="818" y="1168" type="line"/>
      <point x="1036" y="1168" type="line"/>
      <point x="472" y="525" type="line"/>
    </contour>
    <contour>
      <point x="846" y="0" type="line"/>
      <point x="375" y="537" type="line"/>
      <point x="489" y="663" type="line"/>
      <point x="1074" y="0" type="line"/>
    </contour>
  </outline>
</glyph>
<glyph name="lambda" format="2">
  <advance width="958"/>
  <unicode hex="03BB"/>
  <outline>
    <contour>
      <point x="0.0" y="0.0" type="line"/>
      <point x="401" y="1155.0" type="line"/>
      <point x="377" y="1217.0" type="line" smooth="yes"/>
      <point x="339" y="1315"/>
      <point x="257" y="1396.0"/>
      <point x="198" y="1396.0" type="qcurve" smooth="yes"/>
      <point x="173" y="1396.0"/>
      <point x="130" y="1386.0"/>
      <point x="105" y="1378.0" type="qcurve"/>
      <point x="105" y="1536.0" type="line"/>
      <point x="132" y="1546.0"/>
      <point x="189" y="1556.0"/>
      <point x="223" y="1556.0" type="qcurve"/>
      <point x="340" y="1556.0"/>
      <point x="487" y="1414.0"/>
      <point x="543" y="1252.0" type="qcurve" smooth="yes"/>
      <point x="958" y="0.0" type="line"/>
      <point x="772" y="0.0" type="line"/>
      <point x="533" y="773.0" type="line" smooth="yes"/>
      <point x="527" y="793"/>
      <point x="508" y="855.0"/>
      <point x="491" y="914.0" type="qcurve"/>
      <point x="485" y="914.0" type="line"/>
      <point x="468" y="853.0"/>
      <point x="455" y="815"/>
      <point x="441" y="773.0" type="qcurve" smooth="yes"/>
      <point x="180" y="0.0" type="line"/>
    </contour>
  </outline>
</glyph>
<glyph name="xi" format="2">
	<unicode hex="03BE"/>
	<advance width="920"/>
	<outline>
		<contour>
			<point x="634" y="-348" type="line"/>
			<point x="663" y="-274"/>
			<point x="680" y="-174"/>
			<point x="680" y="-132" type="qcurve"/>
			<point x="680" y="-73"/>
			<point x="589" y="-26"/>
			<point x="508" y="-7" type="qcurve" smooth="yes"/>
			<point x="443" y="8" type="line" smooth="yes"/>
			<point x="281" y="45"/>
			<point x="86" y="234"/>
			<point x="85" y="416" type="qcurve"/>
			<point x="85" y="578"/>
			<point x="246" y="775"/>
			<point x="378" y="805" type="qcurve"/>
			<point x="378" y="787" type="line"/>
			<point x="278" y="814"/>
			<point x="133" y="973"/>
			<point x="133" y="1101" type="qcurve"/>
			<point x="133" y="1214"/>
			<point x="277" y="1379"/>
			<point x="425" y="1391" type="qcurve"/>
			<point x="425" y="1374" type="line"/>
			<point x="91" y="1374" type="line"/>
			<point x="91" y="1536" type="line"/>
			<point x="846" y="1536" type="line"/>
			<point x="846" y="1381" type="line"/>
			<point x="528" y="1361"/>
			<point x="312" y="1249"/>
			<point x="312" y="1112" type="qcurve" smooth="yes"/>
			<point x="312" y="1005"/>
			<point x="454" y="904"/>
			<point x="604" y="896" type="qcurve" smooth="yes"/>
			<point x="784" y="896" type="line"/>
			<point x="784" y="734" type="line"/>
			<point x="604" y="734" type="line" smooth="yes"/>
			<point x="435" y="734"/>
			<point x="275" y="578"/>
			<point x="275" y="439" type="qcurve"/>
			<point x="275" y="327"/>
			<point x="378" y="192"/>
			<point x="511" y="162" type="qcurve" smooth="yes"/>
			<point x="591" y="144" type="line" smooth="yes"/>
			<point x="749" y="108"/>
			<point x="851" y="11"/>
			<point x="851" y="-84" type="qcurve"/>
			<point x="850" y="-140"/>
			<point x="814" y="-278"/>
			<point x="782" y="-348" type="qcurve"/>
		</contour>
	</outline>
</glyph>
<glyph name="finalsigma" format="2">
	<unicode hex="03C2"/>
	<advance width="1048"/>
	<outline>
		<contour>
			<point x="654" y="-348" type="line"/>
			<point x="683" y="-274"/>
			<point x="700" y="-174"/>
			<point x="700" y="-132" type="qcurve"/>
			<point x="700" y="-73"/>
			<point x="610" y="-25"/>
			<point x="528" y="-7" type="qcurve" smooth="yes"/>
			<point x="468" y="6" type="line" smooth="yes"/>
			<point x="281" y="46"/>
			<point x="85" y="306"/>
			<point x="85" y="555" type="qcurve" smooth="yes"/>
			<point x="85" y="598" type="line" smooth="yes"/>
			<point x="85" y="866"/>
			<point x="334" y="1198"/>
			<point x="561" y="1198" type="qcurve" smooth="yes"/>
			<point x="771" y="1198"/>
			<point x="979" y="1000"/>
			<point x="979" y="831" type="qcurve" smooth="yes"/>
			<point x="979" y="806" type="line"/>
			<point x="799" y="806" type="line"/>
			<point x="799" y="831" type="line" smooth="yes"/>
			<point x="799" y="916"/>
			<point x="691" y="1046"/>
			<point x="561" y="1046" type="qcurve" smooth="yes"/>
			<point x="413" y="1046"/>
			<point x="275" y="815"/>
			<point x="275" y="598" type="qcurve" smooth="yes"/>
			<point x="275" y="553" type="line" smooth="yes"/>
			<point x="275" y="376"/>
			<point x="380" y="197"/>
			<point x="559" y="156" type="qcurve" smooth="yes"/>
			<point x="611" y="144" type="line" smooth="yes"/>
			<point x="769" y="108"/>
			<point x="871" y="11"/>
			<point x="871" y="-84" type="qcurve"/>
			<point x="870" y="-140"/>
			<point x="834" y="-278"/>
			<point x="802" y="-348" type="qcurve"/>
		</contour>
	</outline>
</glyph>
<glyph name="sigma" format="2">
  <advance width="1227"/>
  <unicode hex="03C3"/>
  <outline>
    <contour>
      <point x="581" y="-30" type="qcurve" smooth="yes"/>
      <point x="355" y="-30"/>
      <point x="85" y="300"/>
      <point x="85" y="551" type="qcurve"/>
      <point x="85" y="578" type="line"/>
      <point x="85" y="842"/>
      <point x="380.0" y="1168.0"/>
      <point x="670" y="1168" type="qcurve"/>
      <point x="1177" y="1168" type="line"/>
      <point x="1177" y="1006" type="line"/>
      <point x="886" y="1006" type="line"/>
      <point x="886" y="1029" type="line"/>
      <point x="969" y="982"/>
      <point x="1077" y="761"/>
      <point x="1077" y="582" type="qcurve"/>
      <point x="1077" y="555" type="line"/>
      <point x="1077" y="304"/>
      <point x="807" y="-30"/>
    </contour>
    <contour>
      <point x="581" y="122" type="qcurve" smooth="yes"/>
      <point x="733" y="122"/>
      <point x="887" y="377"/>
      <point x="887" y="555" type="qcurve"/>
      <point x="887" y="582" type="line"/>
      <point x="887" y="764"/>
      <point x="796" y="965"/>
      <point x="729" y="1010" type="qcurve"/>
      <point x="466" y="1026"/>
      <point x="275.0" y="776"/>
      <point x="275" y="578" type="qcurve"/>
      <point x="275" y="551" type="line"/>
      <point x="275" y="373"/>
      <point x="429" y="122"/>
    </contour>
  </outline>
</glyph>
<glyph name="upsilon" format="2">
	<unicode hex="03C5"/>
	<advance width="1128"/>
	<outline>
		<contour>
			<point x="565" y="-20" type="qcurve" smooth="yes"/>
			<point x="338" y="-20"/>
			<point x="138" y="201"/>
			<point x="138" y="403" type="qcurve" smooth="yes"/>
			<point x="138" y="1168" type="line"/>
			<point x="324" y="1168" type="line"/>
			<point x="324" y="401" type="line" smooth="yes"/>
			<point x="324" y="275"/>
			<point x="441" y="136"/>
			<point x="565" y="136" type="qcurve" smooth="yes"/>
			<point x="689" y="136"/>
			<point x="806" y="275"/>
			<point x="804" y="401" type="qcurve" smooth="yes"/>
			<point x="804" y="1168" type="line"/>
			<point x="990" y="1168" type="line"/>
			<point x="990" y="403" type="line" smooth="yes"/>
			<point x="990" y="201"/>
			<point x="792" y="-20"/>
		</contour>
	</outline>
	<anchor name="GRK_top" x="564" y="1168"/>
</glyph>
<glyph name="chi" format="2">
	<unicode hex="03C7"/>
	<advance width="1029"/>
	<outline>
		<contour>
			<point x="796" y="-416" type="line"/>
			<point x="480" y="330" type="line"/>
			<point x="460" y="330" type="line"/>
			<point x="47" y="1168" type="line"/>
			<point x="236" y="1168" type="line"/>
			<point x="550" y="478" type="line"/>
			<point x="564" y="478" type="line"/>
			<point x="982" y="-416" type="line"/>
		</contour>
		<contour>
			<point x="53" y="-416" type="line"/>
			<point x="483" y="498" type="line"/>
			<point x="497" y="498" type="line"/>
			<point x="789" y="1168" type="line"/>
			<point x="972" y="1168" type="line"/>
			<point x="579" y="343" type="line"/>
			<point x="565" y="343" type="line"/>
			<point x="236" y="-416" type="line"/>
		</contour>
	</outline>
</glyph>
<glyph name="omega" format="2">
	<unicode hex="03C9"/>
	<advance width="1570"/>
	<outline>
		<contour>
			<point x="482" y="-30" type="qcurve" smooth="yes"/>
			<point x="299" y="-30"/>
			<point x="95" y="235"/>
			<point x="95" y="529" type="qcurve"/>
			<point x="95" y="744"/>
			<point x="205" y="1080"/>
			<point x="294" y="1168" type="qcurve"/>
			<point x="483" y="1168" type="line"/>
			<point x="379" y="1055"/>
			<point x="285" y="711"/>
			<point x="285" y="527" type="qcurve"/>
			<point x="285" y="305"/>
			<point x="383" y="126"/>
			<point x="480" y="126" type="qcurve"/>
			<point x="592" y="126"/>
			<point x="692" y="296"/>
			<point x="692" y="408" type="qcurve"/>
			<point x="692" y="808" type="line"/>
			<point x="878" y="808" type="line"/>
			<point x="878" y="408" type="line"/>
			<point x="878" y="296"/>
			<point x="977" y="126"/>
			<point x="1090" y="126" type="qcurve"/>
			<point x="1187" y="126"/>
			<point x="1285" y="305"/>
			<point x="1285" y="527" type="qcurve"/>
			<point x="1285" y="711"/>
			<point x="1190" y="1055"/>
			<point x="1086" y="1168" type="qcurve"/>
			<point x="1276" y="1168" type="line"/>
			<point x="1365" y="1080"/>
			<point x="1475" y="744"/>
			<point x="1475" y="529" type="qcurve"/>
			<point x="1475" y="235"/>
			<point x="1271" y="-30"/>
			<point x="1088" y="-30" type="qcurve" smooth="yes"/>
			<point x="978" y="-30"/>
			<point x="817" y="84"/>
			<point x="776" y="212" type="qcurve"/>
			<point x="794" y="212" type="line"/>
			<point x="753" y="84"/>
			<point x="592" y="-30"/>
		</contour>
	</outline>
	<anchor name="GRK_top" x="785" y="1168"/>
</glyph>
<glyph name="zhedescender" format="2">
  <advance width="1390"/>
  <unicode hex="0497"/>
  <outline>
    <contour>
      <point x="1197" y="0" type="line"/>
      <point x="814" y="523" type="line"/>
      <point x="932" y="649" type="line"/>
      <point x="1421" y="0" type="line"/>
    </contour>
    <contour>
      <point x="788" y="1168" type="line"/>
      <point x="788" y="0" type="line"/>
      <point x="602" y="0" type="line"/>
      <point x="602" y="1168" type="line"/>
    </contour>
    <contour>
      <point x="695" y="668" type="line"/>
      <point x="814" y="668" type="line"/>
      <point x="1172" y="1168" type="line"/>
      <point x="1383" y="1168" type="line"/>
      <point x="901" y="523" type="line"/>
      <point x="695" y="523" type="line"/>
    </contour>
    <contour>
      <point x="1194" y="145" type="line"/>
      <point x="1429" y="145" type="line"/>
      <point x="1429" y="-270" type="line"/>
      <point x="1261" y="-270" type="line"/>
      <point x="1261" y="0" type="line"/>
      <point x="1194" y="0" type="line"/>
    </contour>
    <contour>
      <point x="192" y="0" type="line"/>
      <point x="-25" y="0" type="line"/>
      <point x="463" y="649" type="line"/>
      <point x="576" y="523" type="line"/>
    </contour>
    <contour>
      <point x="695" y="668" type="line"/>
      <point x="695" y="523" type="line"/>
      <point x="487" y="523" type="line"/>
      <point x="5" y="1168" type="line"/>
      <point x="217" y="1168" type="line"/>
      <point x="576" y="668" type="line"/>
    </contour>
  </outline>
</glyph>
<glyph name="dagger" format="2">
  <advance width="1008"/>
  <unicode hex="2020"/>
  <outline>
    <contour>
      <point x="406" y="-274" type="qcurve"/>
      <point x="402" y="8" type="line"/>
      <point x="423" y="748" type="line"/>
      <point x="423" y="852" type="line"/>
      <point x="72" y="852" type="line"/>
      <point x="72" y="1025" type="line"/>
      <point x="419" y="1025" type="line"/>
      <point x="406" y="1508" type="line"/>
      <point x="597" y="1508" type="line"/>
      <point x="584" y="1025" type="line"/>
      <point x="931" y="1025" type="line"/>
      <point x="931" y="852" type="line"/>
      <point x="580" y="852" type="line"/>
      <point x="580" y="748" type="line"/>
      <point x="601" y="8" type="line"/>
      <point x="597" y="-274" type="line"/>
      <point x="524.0" y="-415.0"/>
      <point x="480.0" y="-416.0"/>
    </contour>
  </outline>
</glyph>
<glyph name="uni20B1" format="2">
  <advance width="1024"/>
  <unicode hex="20B1"/>
  <outline>
    <contour>
      <point x="444" y="421.0" type="qcurve" smooth="yes"/>
      <point x="187" y="421.0" type="line"/>
      <point x="187.0" y="577" type="line"/>
      <point x="442.0" y="577" type="line" smooth="yes"/>
      <point x="596.0" y="577.0"/>
      <point x="708.0" y="759.0"/>
      <point x="708.0" y="945" type="qcurve" smooth="yes"/>
      <point x="708" y="1131"/>
      <point x="596.0" y="1300.0"/>
      <point x="442.0" y="1300" type="qcurve" smooth="yes"/>
      <point x="277" y="1300" type="line"/>
      <point x="277" y="0" type="line"/>
      <point x="89" y="0" type="line"/>
      <point x="89" y="1456" type="line"/>
      <point x="445" y="1456.0" type="line" smooth="yes"/>
      <point x="680.0" y="1456.0"/>
      <point x="894" y="1203"/>
      <point x="894.0" y="955" type="qcurve" smooth="yes"/>
      <point x="894" y="725.0"/>
      <point x="679.0" y="421.0"/>
    </contour>
    <contour>
      <point x="-1" y="980" type="line"/>
      <point x="-1" y="1137" type="line"/>
      <point x="201" y="1137" type="line"/>
      <point x="201" y="1112" type="line"/>
      <point x="787" y="1112" type="line"/>
      <point x="787" y="1137" type="line"/>
      <point x="1019" y="1139" type="line"/>
      <point x="1019" y="982" type="line"/>
      <point x="807" y="980" type="line"/>
      <point x="807" y="995" type="line"/>
      <point x="201" y="995" type="line"/>
      <point x="201" y="980" type="line"/>
    </contour>
    <contour>
      <point x="-1" y="710" type="line"/>
      <point x="-1" y="867" type="line"/>
      <point x="201" y="867" type="line"/>
      <point x="201" y="852" type="line"/>
      <point x="807" y="852" type="line"/>
      <point x="807" y="867" type="line"/>
      <point x="1019" y="869" type="line"/>
      <point x="1019" y="712" type="line"/>
      <point x="767" y="710" type="line"/>
      <point x="767" y="734" type="line"/>
      <point x="201" y="734" type="line"/>
      <point x="201" y="710" type="line"/>
    </contour>
  </outline>
</glyph>
<glyph name="acutecomb.case" format="2">
  <advance width="1024"/>
  <outline>
    <contour>
      <point x="396" y="1634" type="line"/>
      <point x="609" y="1973" type="line"/>
      <point x="771" y="1874" type="line"/>
      <point x="523" y="1575" type="line"/>
    </contour>
  </outline>
</glyph>
<glyph name="cedillacomb.case" format="2">
  <advance width="1024"/>
  <outline>
    <contour>
      <point x="430" y="32" type="line"/>
      <point x="569" y="32" type="line"/>
      <point x="541" y="-93" type="line"/>
      <point x="620" y="-107"/>
      <point x="744" y="-199"/>
      <point x="744" y="-276" type="qcurve" smooth="yes"/>
      <point x="744" y="-379"/>
      <point x="520" y="-505.0"/>
      <point x="318" y="-505" type="qcurve"/>
      <point x="311" y="-369" type="line"/>
      <point x="419" y="-370"/>
      <point x="542.0" y="-331"/>
      <point x="542" y="-278" type="qcurve" smooth="yes"/>
      <point x="542.0" y="-229"/>
      <point x="473" y="-192"/>
      <point x="389" y="-185" type="qcurve"/>
    </contour>
  </outline>
</glyph>
<glyph name="circumflexcomb.case" format="2">
  <advance width="1024"/>
  <outline>
    <contour>
      <point x="573" y="1975" type="line"/>
      <point x="838" y="1635" type="line"/>
      <point x="671" y="1633" type="line"/>
      <point x="505" y="1817" type="line"/>
      <point x="345" y="1635" type="line"/>
      <point x="172" y="1635" type="line"/>
      <point x="429" y="1975" type="line"/>
    </contour>
  </outline>
</glyph>
<glyph name="coloncurrency.rvrn" format="2">
  <advance width="1154"/>
  <guideline x="0" y="1570" angle="0" identifier="0DwZ2nfhdf"/>
  <outline>
    <contour>
      <point x="85" y="612" type="qcurve" smooth="yes"/>
      <point x="85" y="844" type="line" smooth="yes"/>
      <point x="85" y="1154"/>
      <point x="387" y="1486"/>
      <point x="621" y="1486" type="qcurve" smooth="yes"/>
      <point x="856" y="1486"/>
      <point x="1123" y="1233"/>
      <point x="1123" y="1040" type="qcurve" smooth="yes"/>
      <point x="1123" y="990" type="line"/>
      <point x="941" y="990" type="line"/>
      <point x="941" y="1041" type="line" smooth="yes"/>
      <point x="941" y="1161"/>
      <point x="784" y="1332"/>
      <point x="621" y="1332" type="qcurve" smooth="yes"/>
      <point x="459" y="1332"/>
      <point x="271" y="1085"/>
      <point x="271" y="844" type="qcurve" smooth="yes"/>
      <point x="271" y="592" type="line" smooth="yes"/>
      <point x="271" y="369"/>
      <point x="469" y="114"/>
      <point x="631" y="114" type="qcurve" smooth="yes"/>
      <point x="794" y="114"/>
      <point x="946" y="291"/>
      <point x="946" y="412" type="qcurve" smooth="yes"/>
      <point x="946" y="466" type="line"/>
      <point x="1133" y="466" type="line"/>
      <point x="1133" y="426" type="line" smooth="yes"/>
      <point x="1133" y="241"/>
      <point x="866" y="-30"/>
      <point x="631" y="-30" type="qcurve" smooth="yes"/>
      <point x="392" y="-30"/>
      <point x="85" y="308"/>
    </contour>
    <contour>
      <point x="475" y="134" type="line"/>
      <point x="462" y="45" type="line"/>
      <point x="468" y="18" type="line"/>
      <point x="448" y="-125" type="line"/>
      <point x="289" y="-125" type="line"/>
      <point x="321" y="101" type="line"/>
      <point x="335" y="127" type="line"/>
      <point x="337" y="134" type="line"/>
    </contour>
    <contour>
      <point x="690" y="1570" type="line"/>
      <point x="669" y="1426" type="line"/>
      <point x="656" y="1405" type="line"/>
      <point x="652" y="1380" type="line"/>
      <point x="514" y="1380" type="line"/>
      <point x="518" y="1407" type="line"/>
      <point x="511" y="1430" type="line"/>
      <point x="532" y="1570" type="line"/>
    </contour>
    <contour>
      <point x="738" y="78" type="line"/>
      <point x="734" y="40" type="line"/>
      <point x="740" y="15" type="line"/>
      <point x="720" y="-125" type="line"/>
      <point x="561" y="-125" type="line"/>
      <point x="580" y="12" type="line"/>
      <point x="594" y="38" type="line"/>
      <point x="601" y="78" type="line"/>
    </contour>
    <contour>
      <point x="962" y="1570" type="line"/>
      <point x="930" y="1374" type="line"/>
      <point x="917" y="1351" type="line"/>
      <point x="916" y="1341" type="line"/>
      <point x="779" y="1341" type="line"/>
      <point x="790" y="1411" type="line"/>
      <point x="783" y="1431" type="line"/>
      <point x="804" y="1570" type="line"/>
    </contour>
  </outline>
</glyph>
<glyph name="dotaccentcomb.case" format="2">
  <advance width="1024"/>
  <outline>
    <contour>
      <point x="391" y="1792" type="qcurve" smooth="yes"/>
      <point x="391" y="1849"/>
      <point x="453" y="1910"/>
      <point x="512" y="1910" type="qcurve" smooth="yes"/>
      <point x="567" y="1910"/>
      <point x="633" y="1845"/>
      <point x="633" y="1792" type="qcurve" smooth="yes"/>
      <point x="633" y="1735"/>
      <point x="571" y="1674"/>
      <point x="512" y="1674" type="qcurve" smooth="yes"/>
      <point x="457" y="1674"/>
      <point x="391" y="1739"/>
    </contour>
  </outline>
</glyph>
<glyph name="gravecomb.case" format="2">
  <advance width="1024"/>
  <anchor x="512" y="1455" name="_top"/>
  <anchor x="512" y="1974" name="top"/>
  <outline>
    <contour>
      <point x="468.0" y="1600.0" type="line"/>
      <point x="231.0" y="1876.0" type="line"/>
      <point x="388.0" y="1974.0" type="line"/>
      <point x="580.0" y="1675.0" type="line"/>
    </contour>
  </outline>
</glyph>
